<?xml version="1.0" encoding="UTF-8" standalone="no"?>
<svg
   xmlns:dc="http://purl.org/dc/elements/1.1/"
   xmlns:cc="http://creativecommons.org/ns#"
   xmlns:rdf="http://www.w3.org/1999/02/22-rdf-syntax-ns#"
   xmlns:svg="http://www.w3.org/2000/svg"
   xmlns="http://www.w3.org/2000/svg"
   xmlns:sodipodi="http://sodipodi.sourceforge.net/DTD/sodipodi-0.dtd"
   xmlns:inkscape="http://www.inkscape.org/namespaces/inkscape"
   width="829"
   height="157"
   viewBox="0 0 829 157"
   version="1.1"
   id="svg16"
   sodipodi:docname="ai-supervisor-logo.svg"
   style="fill:none"
   inkscape:version="0.92.3 (2405546, 2018-03-11)">
  <metadata
     id="metadata22">
    <rdf:RDF>
      <cc:Work
         rdf:about="">
        <dc:format>image/svg+xml</dc:format>
        <dc:type
           rdf:resource="http://purl.org/dc/dcmitype/StillImage" />
        <dc:title></dc:title>
      </cc:Work>
    </rdf:RDF>
  </metadata>
  <defs
     id="defs20" />
  <sodipodi:namedview
     pagecolor="#ffffff"
     bordercolor="#666666"
     borderopacity="1"
     objecttolerance="10"
     gridtolerance="10"
     guidetolerance="10"
     inkscape:pageopacity="0"
     inkscape:pageshadow="2"
     inkscape:window-width="1920"
     inkscape:window-height="1017"
     id="namedview18"
     showgrid="false"
     inkscape:zoom="0.97331711"
     inkscape:cx="363.97409"
     inkscape:cy="77.143613"
     inkscape:window-x="-8"
     inkscape:window-y="-8"
     inkscape:window-maximized="1"
     inkscape:current-layer="svg16" />
  <path
     d="m 4.21628,72.7317 c 0,0 7.56102,10.7313 23.53662,10.7313 12.1952,0 21.4635,-6.951 21.4635,-17.1947 0,-20.3659 -34.3903,-17.1952 -34.3903,-30.9757 0,-5.9756 5.1219,-8.9025 13.6585,-8.9025 4.0244,0 10.6098,1.7074 10.6098,6.2196 v 2.9268 h 7.8049 v -5.2439 c 0,-8.6586 -12.4391,-11.0976 -18.6586,-11.0976 -12.3171,0 -21.82929,5.4878 -21.82929,16.5854 0,19.7561 34.39029,17.3171 34.39029,30.7318 0,6.4634 -6.0976,9.7558 -12.9268,9.7558 C 15.8017,76.268 8.97239,67 8.97239,67 Z M 65.0005,106.39 h 8.2927 V 77.244 c 0,-3.1708 -0.2439,-5.366 -0.2439,-5.366 h 0.2439 c 0,0 5.122,11.585 20.122,11.585 15.8538,0 27.4388,-12.6825 27.4388,-32.0728 0,-19.0244 -10.244,-32.1952 -26.7071,-32.1952 -16.2195,0 -21.0976,12.0732 -21.0976,12.0732 h -0.2439 c 0,0 0.1219,-1.7073 0.1219,-4.1464 0,-4.2683 -2.0731,-6.4634 -7.317,-6.4634 h -8.4147 v 7.1952 h 5.122 c 1.7073,0 2.6829,0.9756 2.6829,2.6829 z m 8.0488,-54.8779 c 0,-17.439 9.6342,-24.7561 19.8781,-24.7561 11.4636,0 19.3906,9.6342 19.3906,24.6342 0,15.6098 -8.903,24.7558 -19.7565,24.7558 -12.8049,0 -19.5122,-12.3168 -19.5122,-24.6339 z m 57.1987,13.7806 c 0,12.1953 10.61,18.1703 20.854,18.1703 15.366,0 20.488,-13.2923 20.366,-13.2923 h 0.244 c 0,0 -0.122,1.8293 -0.122,4.5122 0,5.0001 2.073,7.3171 7.317,7.3171 h 8.415 V 74.8049 H 182.2 c -1.708,0 -2.683,-0.8537 -2.683,-2.683 V 42.7316 c 0,-13.1707 -4.634,-23.5366 -24.025,-23.5366 -5.366,0 -20,1.8293 -20,10.3659 v 5.8536 h 7.927 v -3.9024 c 0,-4.5122 8.903,-5.3659 11.951,-5.3659 11.22,0 15.854,4.5122 15.854,17.3171 v 0.7318 h -3.415 c -10.609,0 -37.561,0.7317 -37.561,21.0976 z m 8.537,-0.4879 c 0,-13.7805 19.268,-14.0244 28.902,-14.0244 h 3.537 v 2.8049 c 0,10.6098 -7.073,22.8047 -18.78,22.8047 -9.147,0 -13.659,-5.8534 -13.659,-11.5852 z M 200.529,82 h 8.292 V 56.1463 c 0,-3.9025 0.488,-8.0488 1.708,-11.9512 2.683,-9.0245 9.146,-15.8537 17.805,-15.8537 1.585,0 3.048,0.2439 3.048,0.2439 v -8.1708 c 0,0 -1.585,-0.3658 -3.292,-0.3658 -9.635,0 -16.464,7.0731 -19.391,16.3415 h -0.244 c 0,0 0.244,-2.0732 0.244,-4.6342 v -4.1463 c 0,-4.8781 -2.317,-6.9513 -7.439,-6.9513 h -8.536 v 7.1952 h 5.122 c 1.707,0 2.683,0.9756 2.683,2.6829 z m 45.017,0 h 8.293 V 56.1463 c 0,-3.9025 0.487,-8.0488 1.707,-11.9512 2.683,-9.0245 9.146,-15.8537 17.805,-15.8537 1.585,0 3.049,0.2439 3.049,0.2439 v -8.1708 c 0,0 -1.586,-0.3658 -3.293,-0.3658 -9.634,0 -16.464,7.0731 -19.39,16.3415 h -0.244 c 0,0 0.244,-2.0732 0.244,-4.6342 v -4.1463 c 0,-4.8781 -2.318,-6.9513 -7.439,-6.9513 h -8.537 v 7.1952 h 5.122 c 1.707,0 2.683,0.9756 2.683,2.6829 z m 36.07,-30.9757 c 0,18.5367 14.512,32.4387 32.439,32.4387 17.805,0 32.317,-13.902 32.317,-32.4387 0,-18.1707 -14.512,-31.8293 -32.439,-31.8293 -17.805,0 -32.317,13.6586 -32.317,31.8293 z m 8.536,0 c 0,-13.9024 10.732,-24.2683 23.903,-24.2683 13.049,0 23.78,10.3659 23.78,24.2683 0,14.2684 -10.731,24.9997 -23.78,24.9997 -13.171,0 -23.903,-10.7313 -23.903,-24.9997 z"
     id="path2"
     inkscape:connector-curvature="0"
     style="fill:#bdbdbd" />
  <path
     d="m 360.991,79.702 c 0,0 8.401,11.924 26.152,11.924 13.55,0 23.848,-7.724 23.848,-19.1057 0,-22.6288 -38.211,-19.1057 -38.211,-34.4174 0,-6.6396 5.691,-9.8916 15.176,-9.8916 4.471,0 11.789,1.897 11.789,6.9105 v 3.2521 h 8.672 v -5.8266 c 0,-9.6206 -13.822,-12.3306 -20.732,-12.3306 -13.686,0 -24.255,6.0975 -24.255,18.4282 0,21.9512 38.212,19.2412 38.212,34.1464 0,7.1817 -6.776,10.8397 -14.364,10.8397 -13.414,0 -21.002,-10.2977 -21.002,-10.2977 z m 72.01,-23.7129 c 0,21.0029 15.447,35.6369 35.637,35.6369 15.447,0 25.338,-9.756 25.338,-9.756 l -4.471,-6.9107 c 0,0 -7.995,8.4007 -20.461,8.4007 -14.092,0 -26.152,-9.8912 -26.423,-27.0999 h 52.304 c 0,0 0.271,-2.981 0.271,-4.6071 0,-16.9377 -9.756,-31.4363 -28.591,-31.4363 -18.293,0 -33.604,13.4146 -33.604,35.7724 z m 10.027,-7.0461 c 2.303,-13.6857 12.195,-21.0027 23.442,-21.0027 10.027,0 18.699,6.9105 19.241,21.0027 z M 524.444,90 h 9.214 V 57.3441 c 0,-3.252 0.271,-6.3686 1.084,-9.2141 3.117,-11.2466 13.144,-19.2412 24.797,-19.2412 13.144,0 14.77,9.4851 14.77,20.1897 V 81.734 c 0,5.827 2.439,8.266 8.265,8.266 h 9.621 v -7.995 h -5.691 c -1.897,0 -2.981,-0.948 -2.981,-2.981 V 46.6395 c 0,-16.8022 -5.962,-26.4228 -22.9,-26.4228 -15.989,0 -24.661,10.9756 -27.1,17.2087 h -0.271 c 0,0 0.271,-2.1681 0.271,-4.8781 v -3.1165 c 0,-5.1491 -2.575,-7.5881 -8.266,-7.5881 h -9.485 v 7.9946 h 5.691 c 1.897,0 2.981,1.084 2.981,2.981 z m 85.42,-10.298 c 0,0 8.401,11.924 26.152,11.924 13.55,0 23.848,-7.724 23.848,-19.1057 0,-22.6288 -38.211,-19.1057 -38.211,-34.4174 0,-6.6396 5.691,-9.8916 15.176,-9.8916 4.472,0 11.789,1.897 11.789,6.9105 v 3.2521 h 8.672 v -5.8266 c 0,-9.6206 -13.821,-12.3306 -20.732,-12.3306 -13.686,0 -24.255,6.0975 -24.255,18.4282 0,21.9512 38.212,19.2412 38.212,34.1464 0,7.1817 -6.775,10.8397 -14.364,10.8397 -13.414,0 -21.002,-10.2977 -21.002,-10.2977 z m 72.01,-23.7129 c 0,21.0029 15.447,35.6369 35.637,35.6369 15.447,0 25.338,-9.756 25.338,-9.756 l -4.471,-6.9107 c 0,0 -7.995,8.4007 -20.461,8.4007 -14.092,0 -26.152,-9.8912 -26.423,-27.0999 h 52.304 c 0,0 0.271,-2.981 0.271,-4.6071 0,-16.9377 -9.756,-31.4363 -28.591,-31.4363 -18.293,0 -33.604,13.4146 -33.604,35.7724 z m 10.027,-7.0461 c 2.303,-13.6857 12.195,-21.0027 23.442,-21.0027 10.027,0 18.699,6.9105 19.241,21.0027 z"
     id="path4"
     inkscape:connector-curvature="0"
     style="fill:#767676" />
  <path
     d="m 383.222,145.955 -3.099,-7.918 h -9.978 l -3.065,7.918 h -2.929 l 9.842,-24.997 h 2.435 l 9.791,24.997 z m -4.001,-10.523 -2.895,-7.714 c -0.374,-0.976 -0.76,-2.173 -1.158,-3.592 -0.249,1.089 -0.607,2.287 -1.072,3.592 l -2.929,7.714 z m 21.58,10.523 v -24.894 h 2.895 v 24.894 z m 55.165,-6.624 c 0,2.191 -0.794,3.9 -2.383,5.126 -1.59,1.226 -3.747,1.839 -6.471,1.839 -2.951,0 -5.222,-0.381 -6.811,-1.141 v -2.793 c 1.022,0.432 2.134,0.772 3.337,1.022 1.204,0.25 2.396,0.375 3.576,0.375 1.93,0 3.383,-0.364 4.359,-1.09 0.977,-0.738 1.465,-1.76 1.465,-3.065 0,-0.863 -0.176,-1.567 -0.528,-2.112 -0.341,-0.556 -0.92,-1.067 -1.737,-1.532 -0.806,-0.466 -2.038,-0.993 -3.695,-1.584 -2.316,-0.828 -3.973,-1.81 -4.972,-2.945 -0.988,-1.136 -1.482,-2.617 -1.482,-4.445 0,-1.918 0.721,-3.445 2.163,-4.58 1.442,-1.135 3.349,-1.703 5.721,-1.703 2.475,0 4.751,0.454 6.828,1.362 l -0.902,2.52 c -2.055,-0.862 -4.053,-1.294 -5.994,-1.294 -1.532,0 -2.73,0.329 -3.593,0.988 -0.862,0.658 -1.294,1.572 -1.294,2.741 0,0.863 0.159,1.573 0.477,2.129 0.318,0.545 0.851,1.05 1.601,1.515 0.76,0.454 1.918,0.959 3.473,1.516 2.611,0.931 4.405,1.93 5.381,2.997 0.988,1.067 1.481,2.452 1.481,4.154 z m 35.05,-18.27 v 16.108 c 0,2.838 -0.857,5.068 -2.571,6.692 -1.715,1.623 -4.07,2.435 -7.067,2.435 -2.997,0 -5.318,-0.818 -6.964,-2.452 -1.635,-1.635 -2.452,-3.883 -2.452,-6.743 v -16.04 h 2.894 v 16.244 c 0,2.077 0.568,3.672 1.703,4.785 1.135,1.112 2.804,1.669 5.006,1.669 2.1,0 3.718,-0.557 4.853,-1.669 1.135,-1.124 1.703,-2.73 1.703,-4.819 v -16.21 z m 33.551,7.253 c 0,2.521 -0.863,4.462 -2.589,5.824 -1.714,1.351 -4.171,2.026 -7.373,2.026 h -2.928 v 9.791 h -2.895 v -24.894 h 6.453 c 6.221,0 9.332,2.418 9.332,7.253 z m -12.89,5.364 h 2.605 c 2.565,0 4.421,-0.414 5.568,-1.243 1.146,-0.829 1.72,-2.157 1.72,-3.984 0,-1.646 -0.54,-2.872 -1.618,-3.678 -1.078,-0.806 -2.758,-1.209 -5.04,-1.209 h -3.235 z m 43.154,12.277 h -13.878 v -24.894 h 13.878 v 2.571 h -10.983 v 8.02 h 10.319 v 2.554 h -10.319 v 9.161 h 10.983 z m 19.588,-10.353 v 10.353 h -2.895 v -24.894 h 6.829 c 3.053,0 5.307,0.584 6.76,1.753 1.464,1.17 2.196,2.929 2.196,5.279 0,3.292 -1.669,5.517 -5.006,6.675 l 6.76,11.187 h -3.423 l -6.027,-10.353 z m 0,-2.486 h 3.968 c 2.043,0 3.541,-0.403 4.495,-1.209 0.953,-0.817 1.43,-2.037 1.43,-3.661 0,-1.646 -0.488,-2.832 -1.464,-3.558 -0.965,-0.727 -2.52,-1.09 -4.666,-1.09 h -3.763 z m 44.04,-12.055 h 3.116 l -8.973,24.894 h -2.861 l -8.923,-24.894 h 3.065 l 5.722,16.108 c 0.658,1.85 1.18,3.649 1.566,5.398 0.409,-1.839 0.942,-3.673 1.601,-5.5 z m 17.715,24.894 v -24.894 h 2.895 v 24.894 z m 34.947,-6.624 c 0,2.191 -0.794,3.9 -2.384,5.126 -1.589,1.226 -3.746,1.839 -6.47,1.839 -2.952,0 -5.222,-0.381 -6.811,-1.141 v -2.793 c 1.021,0.432 2.134,0.772 3.337,1.022 1.203,0.25 2.395,0.375 3.576,0.375 1.93,0 3.383,-0.364 4.359,-1.09 0.976,-0.738 1.464,-1.76 1.464,-3.065 0,-0.863 -0.176,-1.567 -0.527,-2.112 -0.341,-0.556 -0.92,-1.067 -1.737,-1.532 -0.806,-0.466 -2.038,-0.993 -3.695,-1.584 -2.316,-0.828 -3.973,-1.81 -4.972,-2.945 -0.988,-1.136 -1.482,-2.617 -1.482,-4.445 0,-1.918 0.721,-3.445 2.163,-4.58 1.441,-1.135 3.349,-1.703 5.721,-1.703 2.475,0 4.751,0.454 6.828,1.362 l -0.902,2.52 c -2.055,-0.862 -4.053,-1.294 -5.994,-1.294 -1.533,0 -2.73,0.329 -3.593,0.988 -0.863,0.658 -1.294,1.572 -1.294,2.741 0,0.863 0.159,1.573 0.477,2.129 0.318,0.545 0.851,1.05 1.6,1.515 0.761,0.454 1.919,0.959 3.474,1.516 2.611,0.931 4.405,1.93 5.381,2.997 0.987,1.067 1.481,2.452 1.481,4.154 z m 37.859,-5.857 c 0,3.984 -1.01,7.117 -3.031,9.399 -2.009,2.282 -4.807,3.423 -8.395,3.423 -3.666,0 -6.498,-1.118 -8.496,-3.355 -1.987,-2.247 -2.98,-5.415 -2.98,-9.501 0,-4.053 0.999,-7.192 2.997,-9.417 1.998,-2.236 4.835,-3.354 8.513,-3.354 3.576,0 6.369,1.135 8.378,3.406 2.009,2.27 3.014,5.403 3.014,9.399 z m -19.837,0 c 0,3.371 0.715,5.931 2.145,7.679 1.442,1.737 3.531,2.606 6.266,2.606 2.759,0 4.842,-0.869 6.25,-2.606 1.407,-1.736 2.111,-4.296 2.111,-7.679 0,-3.349 -0.704,-5.886 -2.111,-7.612 -1.397,-1.736 -3.468,-2.605 -6.216,-2.605 -2.758,0 -4.858,0.874 -6.3,2.622 -1.43,1.737 -2.145,4.269 -2.145,7.595 z m 39.459,2.128 v 10.353 h -2.895 v -24.894 h 6.829 c 3.053,0 5.307,0.584 6.76,1.753 1.464,1.17 2.196,2.929 2.196,5.279 0,3.292 -1.669,5.517 -5.006,6.675 l 6.76,11.187 h -3.423 l -6.027,-10.353 z m 0,-2.486 h 3.968 c 2.043,0 3.541,-0.403 4.495,-1.209 0.954,-0.817 1.43,-2.037 1.43,-3.661 0,-1.646 -0.488,-2.832 -1.464,-3.558 -0.965,-0.727 -2.52,-1.09 -4.666,-1.09 h -3.763 z"
     id="path6"
     inkscape:connector-curvature="0"
     style="fill:#4f4f4f" />
  <path
     d="m 790.654,24.3306 37.941,-10e-5"
     id="path8"
     inkscape:connector-curvature="0"
     style="stroke:#009c9c;stroke-width:5.42006016" />
  <path
     d="m 795.398,54.141 c 9.354,0 16.937,7.5833 16.937,16.9377 0,9.3543 -7.583,16.9373 -16.937,16.9373 -9.355,0 -16.938,-7.583 -16.938,-16.9373 0,-9.3544 7.583,-16.9377 16.938,-16.9377 z"
     id="path10"
     inkscape:connector-curvature="0"
     style="stroke:#009c9c;stroke-width:5.42006016" />
  <path
     d="m 810.988,70.4014 h 17.615"
     id="path12"
     inkscape:connector-curvature="0"
     style="stroke:#009c9c;stroke-width:5.42006016" />
  <circle
     cx="24.330585"
     cy="-766.24799"
     r="2.7100301"
     transform="rotate(90)"
     id="circle14"
     style="fill:#ffffff;stroke:#f2994a;stroke-width:5.42006016" />
</svg>
